<?xml version="1.0" encoding="UTF-8" standalone="no"?>
<!-- Created with Inkscape (http://www.inkscape.org/) -->

<svg
   width="480"
   height="200"
   viewBox="0 0 127.00001 52.916668"
   version="1.1"
   id="svg1"
   inkscape:version="1.3 (0e150ed6c4, 2023-07-21)"
   sodipodi:docname="logo.svg"
   xmlns:inkscape="http://www.inkscape.org/namespaces/inkscape"
   xmlns:sodipodi="http://sodipodi.sourceforge.net/DTD/sodipodi-0.dtd"
   xmlns="http://www.w3.org/2000/svg"
   xmlns:svg="http://www.w3.org/2000/svg">
  <sodipodi:namedview
     id="namedview1"
     pagecolor="#ffffff"
     bordercolor="#000000"
     borderopacity="0.25"
     inkscape:showpageshadow="2"
     inkscape:pageopacity="0.0"
     inkscape:pagecheckerboard="false"
     inkscape:deskcolor="#d1d1d1"
     inkscape:document-units="px"
     inkscape:zoom="8.0000002"
     inkscape:cx="180.8125"
     inkscape:cy="101.0625"
     inkscape:window-width="2560"
     inkscape:window-height="1351"
     inkscape:window-x="-9"
     inkscape:window-y="-9"
     inkscape:window-maximized="1"
     inkscape:current-layer="g3" />
  <defs
     id="defs1" />
  <g
     inkscape:label="Layer 1"
     inkscape:groupmode="layer"
     id="layer1">
    <g
       id="g3"
       transform="translate(-1.5224615,-0.08718011)">
      <text
         xml:space="preserve"
         style="font-size:22px;font-family:'Bookman Old Style';-inkscape-font-specification:'Bookman Old Style';fill:#000000;fill-opacity:1;stroke:#000000;stroke-width:1.05833;stroke-dasharray:none;stroke-opacity:1"
         x="62.729256"
         y="17.884319"
         id="text8"><tspan
           sodipodi:role="line"
           id="tspan8"
           style="font-size:22px;stroke-width:1.05833"
           x="62.729256"
           y="17.884319"
           dy="8">news</tspan><tspan
           sodipodi:role="line"
           style="font-size:22px;stroke-width:1.05833"
           x="62.729256"
           y="45.384319"
           id="tspan9">brake</tspan></text>
      <rect
         style="fill:none;stroke:#000000;stroke-width:0.999596;stroke-dasharray:none;stroke-opacity:1"
         id="rect2"
         width="51.917168"
         height="36.57901"
         x="6.8829865"
         y="12.161709"
         rx="1.2979294" />
      <rect
         style="fill:none;stroke:#000000;stroke-width:0.759;stroke-dasharray:none;stroke-opacity:1"
         id="rect3"
         width="40.961151"
         height="30.531277"
         x="10.209476"
         y="15.185575" />
      <path
         style="fill:none;stroke:#000000;stroke-width:0.79375;stroke-dasharray:none;stroke-opacity:1"
         d="m 13.493671,40.991546 c 0.115823,-0.03907 0.231601,-0.09344 0.347424,-0.161365 0.11578,-0.06793 0.231602,-0.149501 0.347381,-0.241998 0.115824,-0.09254 0.231602,-0.196056 0.347425,-0.307193 0.11578,-0.111137 0.231602,-0.229948 0.347381,-0.352618 0.115823,-0.122671 0.231602,-0.249154 0.347425,-0.375448 0.11578,-0.126342 0.231602,-0.252401 0.347382,-0.374272 0.115822,-0.12187 0.231601,-0.239457 0.347424,-0.349041 0.11578,-0.10963 0.231602,-0.211166 0.347382,-0.301497 0.115822,-0.09034 0.231601,-0.169319 0.347382,-0.234561 0.115822,-0.06524 0.231601,-0.116645 0.347424,-0.152609 0.115779,-0.03601 0.231602,-0.05649 0.347381,-0.06091 0.115823,-0.0044 0.231601,0.0072 0.347425,0.03474 0.115779,0.02739 0.231601,0.07061 0.347381,0.12813 0.115823,0.05752 0.231602,0.129402 0.347424,0.213332 0.11578,0.08388 0.231602,0.17991 0.347382,0.284834 0.115823,0.104924 0.231602,0.218839 0.347424,0.338073 0.11578,0.119234 0.231602,0.243787 0.347382,0.369704 0.115823,0.125873 0.231602,0.253061 0.347424,0.377567 0.11578,0.12446 0.231602,0.246141 0.347382,0.361233 0.115823,0.115092 0.231602,0.223452 0.347425,0.321785 0.115779,0.09828 0.231601,0.186454 0.347381,0.261676 0.115823,0.07522 0.231602,0.13745 0.347425,0.184804 0.115779,0.0473 0.231601,0.07965 0.347381,0.09608 0.115823,0.01638 0.231601,0.01676 0.347425,0.0012 0.115779,-0.01559 0.231601,-0.04716 0.347381,-0.09377 0.115823,-0.04655 0.231601,-0.108125 0.347424,-0.182687 0.11578,-0.07456 0.231602,-0.162165 0.347382,-0.259933 0.115822,-0.09777 0.231602,-0.205799 0.347424,-0.320515 0.11578,-0.114715 0.231602,-0.236209 0.347382,-0.360527 0.115823,-0.124318 0.231602,-0.251506 0.347424,-0.377472 0.11578,-0.125918 0.231602,-0.25066 0.347382,-0.370129 0.115823,-0.119516 0.231602,-0.233761 0.347424,-0.339202 0.11578,-0.105395 0.231602,-0.201846 0.347382,-0.286387 0.115823,-0.08454 0.231602,-0.157033 0.347425,-0.215309 0.115779,-0.05822 0.231601,-0.102146 0.347381,-0.130391 0.115823,-0.02824 0.231601,-0.04072 0.347425,-0.03709 0.115778,0.0036 0.231601,0.0233 0.347381,0.05851 0.115779,0.0352 0.231601,0.08591 0.347381,0.150443 0.115822,0.06453 0.231602,0.142911 0.347425,0.232678 0.115779,0.08972 0.231601,0.190832 0.347382,0.299992 0.115821,0.109207 0.231601,0.226512 0.347424,0.348146 0.115779,0.121635 0.231602,0.247601 0.347382,0.373895 0.115821,0.126295 0.231601,0.252919 0.347424,0.375778 0.115779,0.122859 0.231602,0.241903 0.347381,0.353466 0.115823,0.111513 0.231602,0.215449 0.347425,0.308558 0.115778,0.09306 0.231602,0.175203 0.347381,0.243834 0.115822,0.06863 0.231602,0.123705 0.347425,0.163529 0.115779,0.03983 0.231601,0.06426 0.347381,0.07268 0.115822,0.0084 0.231602,7.54e-4 0.347425,-0.02274 0.115779,-0.02353 0.231601,-0.06289 0.347381,-0.116834 0.115822,-0.0539 0.231602,-0.122435 0.347425,-0.203305 0.115779,-0.08087 0.231601,-0.174167 0.347382,-0.276784 0.115821,-0.102666 0.231601,-0.214744 0.347424,-0.332565 0.115779,-0.11787 0.231602,-0.241529 0.347382,-0.367024 0.115821,-0.125494 0.231601,-0.252825 0.347424,-0.377895 0.115779,-0.125118 0.231602,-0.24793 0.347381,-0.364622 0.115822,-0.116645 0.231602,-0.227123 0.347425,-0.327858 0.115778,-0.100782 0.231602,-0.19182 0.347381,-0.270194 0.115822,-0.07841 0.231602,-0.144183 0.347425,-0.195209 0.115778,-0.05103 0.231601,-0.08722 0.347381,-0.107608 0.115822,-0.02038 0.231602,-0.02477 0.347424,-0.01318 0.11578,0.01158 0.231602,0.03926 0.347382,0.0821 0.115822,0.04279 0.231602,0.100829 0.347425,0.172097 0.115779,0.07131 0.231601,0.155902 0.347381,0.25113 0.115822,0.09518 0.231602,0.200998 0.347425,0.313972 0.115779,0.11302 0.231558,0.233195 0.347382,0.35676 0.115778,0.123565 0.231601,0.250472 0.34738,0.376673 0.115823,0.126153 0.231602,0.251647 0.347425,0.372388 0.115779,0.12074 0.231602,0.236726 0.347381,0.344286 0.115822,0.10756 0.231602,0.2066 0.347425,0.29406 0.115779,0.08751 0.231602,0.163294 0.347381,0.225053 0.115822,0.06181 0.231602,0.109443 0.347425,0.141593 0.115779,0.0321 0.231602,0.04863 0.347381,0.04905 0.115822,3.76e-4 0.231603,-0.01534 0.347425,-0.0467 0.115779,-0.0313 0.231602,-0.07827 0.347381,-0.139334 0.115823,-0.06105 0.231603,-0.136227 0.347425,-0.223123 0.115779,-0.08684 0.231602,-0.185463 0.347381,-0.292553 0.115823,-0.107136 0.231602,-0.222793 0.347425,-0.343298 0.115779,-0.120504 0.231602,-0.245811 0.34738,-0.371964 0.115824,-0.126155 0.231603,-0.253155 0.347426,-0.376861 0.115779,-0.123706 0.231602,-0.244164 0.34738,-0.357561 0.115823,-0.11335 0.231603,-0.219544 0.347426,-0.31529 0.115779,-0.09575 0.231601,-0.180946 0.347381,-0.252918 0.115822,-0.07197 0.231602,-0.130626 0.347425,-0.174215 0.115779,-0.04359 0.231602,-0.07202 0.347381,-0.08444 0.115822,-0.01242 0.231602,-0.0087 0.347425,0.01078 0.115779,0.01958 0.231602,0.05507 0.347381,0.105348 0.115822,0.05027 0.231603,0.115327 0.347425,0.19309 0.115779,0.07776 0.231602,0.168236 0.347381,0.2685 0.115823,0.10026 0.231603,0.210367 0.347425,0.326728 0.115779,0.116364 0.231602,0.238987 0.34738,0.363963 0.115824,0.12493 0.231603,0.25226 0.347469,0.377849 0.11565,0.12559 0.231731,0.249436 0.347382,0.367588 0.115649,0.118104 0.231731,0.230559 0.347381,0.333695 0.115649,0.103135 0.231732,0.196902 0.347381,0.278432 0.115649,0.08153 0.231731,0.150678 0.347381,0.205329 0.11565,0.05465 0.231731,0.09476 0.347382,0.119046 0.11565,0.02434 0.231731,0.03276 0.347381,0.02518 0.11565,-0.0076 0.231732,-0.0313 0.347382,-0.07032"
         title="sin(x)"
         id="path4" />
      <path
         style="fill:none;stroke:#000000;stroke-width:0.79375;stroke-dasharray:none;stroke-opacity:1"
         d="m 13.493671,34.911097 c 0.115823,-0.03907 0.231601,-0.09344 0.347424,-0.161365 0.11578,-0.06793 0.231602,-0.149501 0.347381,-0.241998 0.115824,-0.09254 0.231602,-0.196056 0.347425,-0.307193 0.11578,-0.111137 0.231602,-0.229948 0.347381,-0.352618 0.115823,-0.122671 0.231602,-0.249154 0.347425,-0.375448 0.11578,-0.126342 0.231602,-0.252401 0.347382,-0.374272 0.115822,-0.12187 0.231601,-0.239457 0.347424,-0.349041 0.11578,-0.10963 0.231602,-0.211166 0.347382,-0.301497 0.115822,-0.09034 0.231601,-0.169319 0.347382,-0.234561 0.115822,-0.06524 0.231601,-0.116645 0.347424,-0.152609 0.115779,-0.03601 0.231602,-0.05649 0.347381,-0.06091 0.115823,-0.0044 0.231601,0.0072 0.347425,0.03474 0.115779,0.02739 0.231601,0.07061 0.347381,0.12813 0.115823,0.05752 0.231602,0.129402 0.347424,0.213332 0.11578,0.08388 0.231602,0.17991 0.347382,0.284834 0.115823,0.104924 0.231602,0.218839 0.347424,0.338073 0.11578,0.119234 0.231602,0.243787 0.347382,0.369704 0.115823,0.125873 0.231602,0.253061 0.347424,0.377567 0.11578,0.12446 0.231602,0.246141 0.347382,0.361233 0.115823,0.115092 0.231602,0.223452 0.347425,0.321785 0.115779,0.09828 0.231601,0.186454 0.347381,0.261676 0.115823,0.07522 0.231602,0.13745 0.347425,0.184804 0.115779,0.0473 0.231601,0.07965 0.347381,0.09608 0.115823,0.01638 0.231601,0.01676 0.347425,0.0012 0.115779,-0.01559 0.231601,-0.04716 0.347381,-0.09377 0.115823,-0.04655 0.231601,-0.108125 0.347424,-0.182687 0.11578,-0.07456 0.231602,-0.162165 0.347382,-0.259933 0.115822,-0.09777 0.231602,-0.205799 0.347424,-0.320515 0.11578,-0.114715 0.231602,-0.236209 0.347382,-0.360527 0.115823,-0.124318 0.231602,-0.251506 0.347424,-0.377472 0.11578,-0.125918 0.231602,-0.25066 0.347382,-0.370129 0.115823,-0.119516 0.231602,-0.233761 0.347424,-0.339202 0.11578,-0.105395 0.231602,-0.201846 0.347382,-0.286387 0.115823,-0.08454 0.231602,-0.157033 0.347425,-0.215309 0.115779,-0.05822 0.231601,-0.102146 0.347381,-0.130391 0.115823,-0.02824 0.231601,-0.04072 0.347425,-0.03709 0.115778,0.0036 0.231601,0.0233 0.347381,0.05851 0.115779,0.0352 0.231601,0.08591 0.347381,0.150443 0.115822,0.06453 0.231602,0.142911 0.347425,0.232678 0.115779,0.08972 0.231601,0.190832 0.347382,0.299992 0.115821,0.109207 0.231601,0.226512 0.347424,0.348146 0.115779,0.121635 0.231602,0.247601 0.347382,0.373895 0.115821,0.126295 0.231601,0.252919 0.347424,0.375778 0.115779,0.122859 0.231602,0.241903 0.347381,0.353466 0.115823,0.111513 0.231602,0.215449 0.347425,0.308558 0.115778,0.09306 0.231602,0.175203 0.347381,0.243834 0.115822,0.06863 0.231602,0.123705 0.347425,0.163529 0.115779,0.03983 0.231601,0.06426 0.347381,0.07268 0.115822,0.0084 0.231602,7.54e-4 0.347425,-0.02274 0.115779,-0.02353 0.231601,-0.06289 0.347381,-0.116834 0.115822,-0.0539 0.231602,-0.122435 0.347425,-0.203305 0.115779,-0.08087 0.231601,-0.174167 0.347382,-0.276784 0.115821,-0.102666 0.231601,-0.214744 0.347424,-0.332565 0.115779,-0.11787 0.231602,-0.241529 0.347382,-0.367024 0.115821,-0.125494 0.231601,-0.252825 0.347424,-0.377895 0.115779,-0.125118 0.231602,-0.24793 0.347381,-0.364622 0.115822,-0.116645 0.231602,-0.227123 0.347425,-0.327858 0.115778,-0.100782 0.231602,-0.19182 0.347381,-0.270194 0.115822,-0.07841 0.231602,-0.144183 0.347425,-0.195209 0.115778,-0.05103 0.231601,-0.08722 0.347381,-0.107608 0.115822,-0.02038 0.231602,-0.02477 0.347424,-0.01318 0.11578,0.01158 0.231602,0.03926 0.347382,0.0821 0.115822,0.04279 0.231602,0.100829 0.347425,0.172097 0.115779,0.07131 0.231601,0.155902 0.347381,0.25113 0.115822,0.09518 0.231602,0.200998 0.347425,0.313972 0.115779,0.11302 0.231558,0.233195 0.347382,0.35676 0.115778,0.123565 0.231601,0.250472 0.34738,0.376673 0.115823,0.126153 0.231602,0.251647 0.347425,0.372388 0.115779,0.12074 0.231602,0.236726 0.347381,0.344286 0.115822,0.10756 0.231602,0.2066 0.347425,0.29406 0.115779,0.08751 0.231602,0.163294 0.347381,0.225053 0.115822,0.06181 0.231602,0.109443 0.347425,0.141593 0.115779,0.0321 0.231602,0.04863 0.347381,0.04905 0.115822,3.76e-4 0.231603,-0.01534 0.347425,-0.0467 0.115779,-0.0313 0.231602,-0.07827 0.347381,-0.139334 0.115823,-0.06105 0.231603,-0.136227 0.347425,-0.223123 0.115779,-0.08684 0.231602,-0.185463 0.347381,-0.292553 0.115823,-0.107136 0.231602,-0.222793 0.347425,-0.343298 0.115779,-0.120504 0.231602,-0.245811 0.34738,-0.371964 0.115824,-0.126155 0.231603,-0.253155 0.347426,-0.376861 0.115779,-0.123706 0.231602,-0.244164 0.34738,-0.357561 0.115823,-0.11335 0.231603,-0.219544 0.347426,-0.31529 0.115779,-0.09575 0.231601,-0.180946 0.347381,-0.252918 0.115822,-0.07197 0.231602,-0.130626 0.347425,-0.174215 0.115779,-0.04359 0.231602,-0.07202 0.347381,-0.08444 0.115822,-0.01242 0.231602,-0.0087 0.347425,0.01078 0.115779,0.01958 0.231602,0.05507 0.347381,0.105348 0.115822,0.05027 0.231603,0.115327 0.347425,0.19309 0.115779,0.07776 0.231602,0.168236 0.347381,0.2685 0.115823,0.10026 0.231603,0.210367 0.347425,0.326728 0.115779,0.116364 0.231602,0.238987 0.34738,0.363963 0.115824,0.12493 0.231603,0.25226 0.347469,0.377849 0.11565,0.12559 0.231731,0.249436 0.347382,0.367588 0.115649,0.118104 0.231731,0.230559 0.347381,0.333695 0.115649,0.103135 0.231732,0.196902 0.347381,0.278432 0.115649,0.08153 0.231731,0.150678 0.347381,0.205329 0.11565,0.05465 0.231731,0.09476 0.347382,0.119046 0.11565,0.02434 0.231731,0.03276 0.347381,0.02518 0.11565,-0.0076 0.231732,-0.0313 0.347382,-0.07032"
         title="sin(x)"
         id="path4-3" />
      <path
         style="fill:none;stroke:#000000;stroke-width:0.79375;stroke-dasharray:none;stroke-opacity:1"
         d="m 13.493671,28.830649 c 0.115823,-0.03907 0.231601,-0.09344 0.347424,-0.161365 0.11578,-0.06793 0.231602,-0.149501 0.347381,-0.241998 0.115824,-0.09254 0.231602,-0.196056 0.347425,-0.307193 0.11578,-0.111137 0.231602,-0.229948 0.347381,-0.352618 0.115823,-0.122671 0.231602,-0.249154 0.347425,-0.375448 0.11578,-0.126342 0.231602,-0.252401 0.347382,-0.374272 0.115822,-0.12187 0.231601,-0.239457 0.347424,-0.349041 0.11578,-0.10963 0.231602,-0.211166 0.347382,-0.301497 0.115822,-0.09034 0.231601,-0.169319 0.347382,-0.234561 0.115822,-0.06524 0.231601,-0.116645 0.347424,-0.152609 0.115779,-0.03601 0.231602,-0.05649 0.347381,-0.06091 0.115823,-0.0044 0.231601,0.0072 0.347425,0.03474 0.115779,0.02739 0.231601,0.07061 0.347381,0.12813 0.115823,0.05752 0.231602,0.129402 0.347424,0.213332 0.11578,0.08388 0.231602,0.17991 0.347382,0.284834 0.115823,0.104924 0.231602,0.218839 0.347424,0.338073 0.11578,0.119234 0.231602,0.243787 0.347382,0.369704 0.115823,0.125873 0.231602,0.253061 0.347424,0.377567 0.11578,0.12446 0.231602,0.246141 0.347382,0.361233 0.115823,0.115092 0.231602,0.223452 0.347425,0.321785 0.115779,0.09828 0.231601,0.186454 0.347381,0.261676 0.115823,0.07522 0.231602,0.13745 0.347425,0.184804 0.115779,0.0473 0.231601,0.07965 0.347381,0.09608 0.115823,0.01638 0.231601,0.01676 0.347425,0.0012 0.115779,-0.01559 0.231601,-0.04716 0.347381,-0.09377 0.115823,-0.04655 0.231601,-0.108125 0.347424,-0.182687 0.11578,-0.07456 0.231602,-0.162165 0.347382,-0.259933 0.115822,-0.09777 0.231602,-0.205799 0.347424,-0.320515 0.11578,-0.114715 0.231602,-0.236209 0.347382,-0.360527 0.115823,-0.124318 0.231602,-0.251506 0.347424,-0.377472 0.11578,-0.125918 0.231602,-0.25066 0.347382,-0.370129 0.115823,-0.119516 0.231602,-0.233761 0.347424,-0.339202 0.11578,-0.105395 0.231602,-0.201846 0.347382,-0.286387 0.115823,-0.08454 0.231602,-0.157033 0.347425,-0.215309 0.115779,-0.05822 0.231601,-0.102146 0.347381,-0.130391 0.115823,-0.02824 0.231601,-0.04072 0.347425,-0.03709 0.115778,0.0036 0.231601,0.0233 0.347381,0.05851 0.115779,0.0352 0.231601,0.08591 0.347381,0.150443 0.115822,0.06453 0.231602,0.142911 0.347425,0.232678 0.115779,0.08972 0.231601,0.190832 0.347382,0.299992 0.115821,0.109207 0.231601,0.226512 0.347424,0.348146 0.115779,0.121635 0.231602,0.247601 0.347382,0.373895 0.115821,0.126295 0.231601,0.252919 0.347424,0.375778 0.115779,0.122859 0.231602,0.241903 0.347381,0.353466 0.115823,0.111513 0.231602,0.215449 0.347425,0.308558 0.115778,0.09306 0.231602,0.175203 0.347381,0.243834 0.115822,0.06863 0.231602,0.123705 0.347425,0.163529 0.115779,0.03983 0.231601,0.06426 0.347381,0.07268 0.115822,0.0084 0.231602,7.54e-4 0.347425,-0.02274 0.115779,-0.02353 0.231601,-0.06289 0.347381,-0.116834 0.115822,-0.0539 0.231602,-0.122435 0.347425,-0.203305 0.115779,-0.08087 0.231601,-0.174167 0.347382,-0.276784 0.115821,-0.102666 0.231601,-0.214744 0.347424,-0.332565 0.115779,-0.11787 0.231602,-0.241529 0.347382,-0.367024 0.115821,-0.125494 0.231601,-0.252825 0.347424,-0.377895 0.115779,-0.125118 0.231602,-0.24793 0.347381,-0.364622 0.115822,-0.116645 0.231602,-0.227123 0.347425,-0.327858 0.115778,-0.100782 0.231602,-0.19182 0.347381,-0.270194 0.115822,-0.07841 0.231602,-0.144183 0.347425,-0.195209 0.115778,-0.05103 0.231601,-0.08722 0.347381,-0.107608 0.115822,-0.02038 0.231602,-0.02477 0.347424,-0.01318 0.11578,0.01158 0.231602,0.03926 0.347382,0.0821 0.115822,0.04279 0.231602,0.100829 0.347425,0.172097 0.115779,0.07131 0.231601,0.155902 0.347381,0.25113 0.115822,0.09518 0.231602,0.200998 0.347425,0.313972 0.115779,0.11302 0.231558,0.233195 0.347382,0.35676 0.115778,0.123565 0.231601,0.250472 0.34738,0.376673 0.115823,0.126153 0.231602,0.251647 0.347425,0.372388 0.115779,0.12074 0.231602,0.236726 0.347381,0.344286 0.115822,0.10756 0.231602,0.2066 0.347425,0.29406 0.115779,0.08751 0.231602,0.163294 0.347381,0.225053 0.115822,0.06181 0.231602,0.109443 0.347425,0.141593 0.115779,0.0321 0.231602,0.04863 0.347381,0.04905 0.115822,3.76e-4 0.231603,-0.01534 0.347425,-0.0467 0.115779,-0.0313 0.231602,-0.07827 0.347381,-0.139334 0.115823,-0.06105 0.231603,-0.136227 0.347425,-0.223123 0.115779,-0.08684 0.231602,-0.185463 0.347381,-0.292553 0.115823,-0.107136 0.231602,-0.222793 0.347425,-0.343298 0.115779,-0.120504 0.231602,-0.245811 0.34738,-0.371964 0.115824,-0.126155 0.231603,-0.253155 0.347426,-0.376861 0.115779,-0.123706 0.231602,-0.244164 0.34738,-0.357561 0.115823,-0.11335 0.231603,-0.219544 0.347426,-0.31529 0.115779,-0.09575 0.231601,-0.180946 0.347381,-0.252918 0.115822,-0.07197 0.231602,-0.130626 0.347425,-0.174215 0.115779,-0.04359 0.231602,-0.07202 0.347381,-0.08444 0.115822,-0.01242 0.231602,-0.0087 0.347425,0.01078 0.115779,0.01958 0.231602,0.05507 0.347381,0.105348 0.115822,0.05027 0.231603,0.115327 0.347425,0.19309 0.115779,0.07776 0.231602,0.168236 0.347381,0.2685 0.115823,0.10026 0.231603,0.210367 0.347425,0.326728 0.115779,0.116364 0.231602,0.238987 0.34738,0.363963 0.115824,0.12493 0.231603,0.25226 0.347469,0.377849 0.11565,0.12559 0.231731,0.249436 0.347382,0.367588 0.115649,0.118104 0.231731,0.230559 0.347381,0.333695 0.115649,0.103135 0.231732,0.196902 0.347381,0.278432 0.115649,0.08153 0.231731,0.150678 0.347381,0.205329 0.11565,0.05465 0.231731,0.09476 0.347382,0.119046 0.11565,0.02434 0.231731,0.03276 0.347381,0.02518 0.11565,-0.0076 0.231732,-0.0313 0.347382,-0.07032"
         title="sin(x)"
         id="path4-0" />
      <circle
         id="path6"
         style="fill:#000000;stroke:#000000;stroke-width:0.264583"
         cx="45.517094"
         cy="21.4009"
         r="0.024920031" />
      <g
         id="g2"
         transform="translate(-0.239573,0.72760421)">
        <rect
           style="fill:#000000;fill-opacity:1;stroke:#000000;stroke-width:0.998466;stroke-dasharray:none;stroke-opacity:1"
           id="rect7-0"
           width="17.522367"
           x="24.31996"
           y="3.6221416"
           height="0.059871491" />
        <g
           id="g1"
           transform="translate(0.07282969)">
          <rect
             style="fill:#000000;fill-opacity:1;stroke:#000000;stroke-width:0.922392;stroke-dasharray:none;stroke-opacity:1"
             id="rect7"
             width="0.13594157"
             x="27.454523"
             y="4.3638005"
             height="6.5861397" />
          <rect
             style="fill:#000000;fill-opacity:1;stroke:#000000;stroke-width:0.922392;stroke-dasharray:none;stroke-opacity:1"
             id="rect7-1"
             width="0.13594157"
             x="38.426163"
             y="4.3638005"
             height="6.5861397" />
        </g>
      </g>
      <rect
         style="fill:#000000;fill-opacity:1;stroke:#000000;stroke-width:0.714643;stroke-dasharray:none;stroke-opacity:1"
         id="rect7-1-0"
         width="0.079106569"
         x="55.018234"
         y="27.419893"
         height="6.7938881"
         rx="0.026458334" />
      <path
         style="fill:none;fill-opacity:1;stroke:#000000;stroke-width:0.79375004;stroke-dasharray:none;stroke-opacity:1"
         d="m 22.113519,22.775312 c 0.0868,-0.03001 0.173599,-0.06892 0.260393,-0.115938 0.0868,-0.04693 0.173598,-0.102078 0.260392,-0.164396 0.0868,-0.06222 0.173598,-0.131613 0.260393,-0.20693 0.0868,-0.07522 0.173598,-0.156463 0.260393,-0.242007 0.0868,-0.08554 0.173597,-0.175484 0.260392,-0.268291 0.0868,-0.09272 0.173598,-0.188292 0.260401,-0.284922 0.08679,-0.09654 0.173589,-0.194218 0.260393,-0.291136 0.08679,-0.09701 0.173589,-0.193261 0.260392,-0.287025 0.08679,-0.09386 0.17359,-0.185137 0.260393,-0.272401 0.08679,-0.08726 0.173589,-0.170418 0.260392,-0.248028 0.08679,-0.07752 0.17359,-0.149487 0.260392,-0.214576 0.08676,-0.06509 0.173615,-0.123202 0.260384,-0.173477 0.08677,-0.05018 0.173624,-0.09242 0.260393,-0.125973 0.08677,-0.03355 0.173623,-0.0584 0.260392,-0.07408 0.08677,-0.01568 0.173624,-0.02217 0.260393,-0.0194 0.08677,0.0027 0.173623,0.01491 0.260392,0.03604 0.08677,0.02103 0.173624,0.05123 0.260392,0.08994 0.08677,0.03871 0.173624,0.08593 0.260393,0.140788 0.08677,0.05496 0.173623,0.117467 0.260392,0.186572 0.08677,0.0691 0.173624,0.144707 0.260393,0.225472 0.08677,0.08077 0.173623,0.16669 0.260393,0.256248 0.08677,0.08965 0.173623,0.182748 0.260392,0.277945 0.08677,0.0951 0.173623,0.192115 0.260393,0.289319 0.08677,0.09721 0.173623,0.1946 0.260392,0.290466 0.08677,0.09577 0.173624,0.190011 0.260393,0.280908 0.08677,0.09099 0.173623,0.178637 0.260392,0.26141 0.08677,0.08277 0.173624,0.160669 0.260392,0.232353 0.08677,0.07169 0.173624,0.136965 0.260393,0.194887 0.08677,0.05792 0.173623,0.108387 0.260392,0.150441 0.08677,0.04205 0.173624,0.0757 0.260393,0.100454 0.08677,0.02476 0.173623,0.04043 0.260392,0.04693 0.08677,0.0065 0.173624,0.0038 0.260393,-0.0083 0.08677,-0.01195 0.173623,-0.03326 0.260393,-0.06328 0.08677,-0.03001 0.173622,-0.06892 0.260392,-0.115938 0.08677,-0.04693 0.173623,-0.102079 0.260393,-0.164397 0.08677,-0.06222 0.173623,-0.131613 0.260392,-0.20693 0.08677,-0.07522 0.173624,-0.156463 0.260392,-0.242007 0.08677,-0.08554 0.173624,-0.175484 0.260393,-0.268291 0.08677,-0.09272 0.173623,-0.188292 0.260392,-0.284922 0.08677,-0.09654 0.173624,-0.194217 0.260393,-0.291136 0.08677,-0.09701 0.173623,-0.193261 0.260392,-0.287025 0.08677,-0.09386 0.173624,-0.185137 0.260392,-0.2724 0.08677,-0.08726 0.173624,-0.170419 0.260394,-0.248029 0.08677,-0.07752 0.173622,-0.149486 0.260392,-0.214576 0.08677,-0.06509 0.173623,-0.123202 0.260393,-0.173477 0.08677,-0.05018 0.173622,-0.09242 0.260392,-0.125973 0.08677,-0.03355 0.173624,-0.0584 0.260392,-0.07408 0.08677,-0.01568 0.173624,-0.02217 0.260393,-0.0194 0.08677,0.0027 0.173623,0.01491 0.260392,0.03604 0.08677,0.02103 0.173624,0.05123 0.260393,0.08994 0.08677,0.03871 0.173623,0.08593 0.260392,0.140788 0.08677,0.05496 0.173624,0.117467 0.260392,0.186571 0.08677,0.0691 0.173624,0.144707 0.260393,0.225472 0.08677,0.08077 0.173623,0.16669 0.260393,0.256249 0.08677,0.08965 0.173623,0.182747 0.260393,0.277944 0.08677,0.0951 0.173622,0.192115 0.260392,0.289319 0.08677,0.09721 0.173623,0.1946 0.260392,0.290467 0.08677,0.09577 0.173624,0.190011 0.260393,0.280908 0.08677,0.09099 0.173623,0.178637 0.260392,0.261409 0.08677,0.08277 0.173624,0.160669 0.260393,0.232353 0.08677,0.07169 0.173623,0.136965 0.260392,0.194887 0.08685,0.05792 0.173624,0.108387 0.260392,0.150441 0.08685,0.04205 0.173624,0.0757 0.260393,0.100454 0.08685,0.02476 0.173623,0.04043 0.260392,0.04693 0.08685,0.0065 0.173624,0.0038 0.260394,-0.0083 0.08685,-0.01195 0.173622,-0.03326 0.260392,-0.06328 0.08685,-0.03001 0.173623,-0.06892 0.260392,-0.115938 0.08685,-0.04693 0.173623,-0.102078 0.260393,-0.164397 0.08685,-0.06222 0.173623,-0.131613 0.260392,-0.20693 0.08685,-0.07522 0.173624,-0.156462 0.260393,-0.242007 0.08685,-0.08554 0.173623,-0.175483 0.260392,-0.268291 0.08685,-0.09272 0.173624,-0.188292 0.260392,-0.284922 0.08685,-0.09653 0.173624,-0.194217 0.260393,-0.291135 0.08685,-0.09701 0.173623,-0.193262 0.260392,-0.287025 0.08685,-0.09386 0.173624,-0.185137 0.260393,-0.272401 0.08685,-0.08726 0.173623,-0.170418 0.260393,-0.248029 0.08685,-0.07752 0.173623,-0.149486 0.260392,-0.214575 0.08685,-0.06509 0.173623,-0.123203 0.260393,-0.173477 0.08685,-0.05018 0.173623,-0.09242 0.260392,-0.125974 0.08685,-0.03355 0.173624,-0.0584 0.260393,-0.07408 0.08685,-0.01568 0.173623,-0.02217 0.260392,-0.0194 0.08685,0.0027 0.173624,0.01491 0.260392,0.03604 0.08685,0.02103 0.173624,0.05124 0.260393,0.08994 0.08685,0.03871 0.173623,0.08593 0.260392,0.140788 0.08685,0.05496 0.173624,0.117467 0.260393,0.186571 0.08685,0.0691 0.173623,0.144707 0.260392,0.225472 0.08685,0.08077 0.173624,0.166691 0.260392,0.256249 0.08685,0.08965 0.173624,0.182748 0.260394,0.277945 0.08685,0.0951 0.173623,0.192115 0.260392,0.289318 0.08685,0.09721 0.173623,0.1946 0.260393,0.290467 0.08685,0.09577 0.173623,0.190011 0.260392,0.280908 0.08685,0.09099 0.173624,0.178637 0.260392,0.26141 0.08685,0.08277 0.173624,0.160668 0.260393,0.232352 0.08685,0.07169 0.173623,0.136966 0.260392,0.194887 0.08685,0.05792 0.173624,0.108387 0.260393,0.150442 0.08685,0.04205 0.173623,0.0757 0.260392,0.100453 0.08685,0.02476 0.173624,0.04043 0.260392,0.04693 0.08685,0.0065 0.173624,0.0038 0.260393,-0.0083 0.08685,-0.01195 0.173624,-0.03326 0.260393,-0.06328"
         title="sin(x)"
         id="path9" />
    </g>
  </g>
</svg>
