<?xml version="1.0" standalone="no"?>
<!DOCTYPE svg PUBLIC "-//W3C//DTD SVG 20010904//EN"
 "http://www.w3.org/TR/2001/REC-SVG-20010904/DTD/svg10.dtd">
<svg version="1.0" xmlns="http://www.w3.org/2000/svg"
 width="700.000000pt" height="700.000000pt" viewBox="0 0 700.000000 700.000000"
 preserveAspectRatio="xMidYMid meet">
<metadata>
Created by potrace 1.14, written by Peter Selinger 2001-2017
</metadata>
<g transform="translate(0.000000,700.000000) scale(0.100000,-0.100000)"
fill="#000000" stroke="none">
<path d="M2799 6223 c0 -10 -1 -33 -2 -51 -1 -19 2 -37 8 -40 5 -4 75 -8 155
-8 80 -1 150 -2 155 -3 6 -1 10 -148 10 -418 l0 -418 -1330 -5 -1330 -5 -41
-27 c-45 -29 -76 -67 -95 -114 -8 -21 -11 -599 -11 -2116 l0 -2087 22 -45 c27
-57 79 -101 136 -115 31 -8 907 -11 3039 -11 l2996 0 49 25 c54 27 95 75 111
126 15 51 15 4160 0 4217 -14 49 -73 114 -123 136 -28 12 -237 14 -1347 15
-723 1 -1317 4 -1320 6 -8 8 -8 808 0 825 6 12 33 15 159 15 171 -1 169 -2
162 75 l-4 40 -699 0 c-659 0 -699 -1 -700 -17z m949 -521 l2 -422 -250 0
-250 0 0 419 c0 271 4 421 10 423 5 2 117 3 247 3 l238 -1 3 -422z m2781 -571
c27 -25 31 -36 32 -83 0 -29 0 -963 0 -2076 1 -1862 0 -2025 -16 -2048 -9 -14
-27 -29 -41 -34 -34 -13 -5974 -13 -6008 0 -14 5 -32 20 -41 34 -16 23 -17
192 -17 2097 0 2028 1 2073 20 2098 10 14 30 28 43 32 13 4 1368 7 3011 8
l2986 1 31 -29z"/>
<path d="M731 3020 l0 -1880 67 0 c112 -1 4926 -1 4940 0 9 0 12 383 12 1880
l0 1880 -2510 0 -2509 0 0 -1880z m4928 0 l0 -1790 -2417 0 -2417 0 0 1790 0
1790 2417 0 2417 0 0 -1790z"/>
<path d="M2580 4325 c-42 -20 -89 -61 -195 -169 -77 -78 -151 -149 -164 -157
-22 -14 -23 -17 -10 -57 6 -23 14 -42 16 -42 2 0 22 9 43 20 39 20 113 89 231
217 143 155 207 153 358 -11 204 -220 277 -263 389 -230 65 20 117 61 244 196
64 67 131 131 148 142 75 44 145 12 265 -120 161 -177 230 -226 317 -225 86 0
136 30 246 146 194 204 236 233 308 214 31 -9 69 -42 189 -163 162 -165 211
-198 293 -198 59 0 69 11 50 59 -12 32 -18 38 -41 35 -43 -4 -101 33 -179 114
-151 158 -200 203 -250 228 -112 56 -218 16 -353 -133 -95 -106 -173 -178
-208 -195 -71 -33 -136 1 -252 129 -83 93 -142 150 -187 180 -79 53 -165 56
-245 9 -43 -25 -67 -47 -230 -216 -100 -103 -144 -127 -206 -109 -34 11 -70
41 -192 165 -91 93 -166 160 -190 171 -65 30 -131 30 -195 0z"/>
<path d="M3687 3614 c-2 -2 -12 -5 -23 -7 -65 -13 -122 -54 -233 -171 -135
-141 -164 -164 -218 -177 -60 -13 -105 16 -259 169 -150 150 -199 182 -276
182 -96 0 -139 -28 -308 -202 -79 -81 -129 -124 -161 -137 -81 -36 -116 -17
-289 158 -146 148 -182 172 -270 179 -90 7 -133 -20 -294 -180 -77 -77 -153
-146 -168 -154 -23 -12 -28 -19 -22 -37 14 -45 24 -67 30 -67 22 0 127 87 226
189 126 129 161 154 219 154 50 0 90 -27 184 -124 193 -197 221 -218 315 -226
92 -9 142 22 303 184 136 137 191 176 239 168 59 -11 83 -29 211 -159 155
-156 197 -186 277 -193 96 -9 147 21 305 182 176 179 226 201 315 140 19 -13
88 -78 152 -144 140 -143 187 -174 271 -177 106 -4 145 22 341 226 116 120
173 146 247 109 19 -9 100 -82 180 -161 155 -154 194 -178 287 -178 51 0 59
14 38 65 -13 31 -20 36 -38 32 -45 -12 -104 29 -245 170 -147 149 -184 174
-270 181 -88 7 -147 -28 -288 -172 -133 -136 -176 -171 -219 -179 -63 -11 -95
10 -238 153 -75 76 -157 150 -181 164 -39 23 -131 49 -140 40z"/>
<path d="M1575 2873 c-44 -11 -127 -78 -232 -187 -60 -63 -127 -125 -147 -137
-30 -17 -35 -25 -30 -43 14 -45 24 -66 30 -66 24 0 116 76 223 185 129 131
163 157 215 158 55 1 99 -31 234 -167 150 -152 203 -186 287 -186 85 0 142 36
290 185 71 73 141 139 155 147 84 50 126 30 305 -149 165 -164 205 -188 300
-180 33 3 76 13 95 23 19 9 96 79 172 155 145 147 191 179 248 172 49 -6 80
-30 220 -172 142 -144 200 -181 285 -181 77 0 138 36 241 141 151 154 158 161
197 187 46 31 103 33 149 4 18 -11 72 -60 118 -107 195 -200 232 -225 330
-225 59 0 68 11 48 60 -12 30 -19 34 -56 36 -56 4 -85 25 -232 175 -138 141
-197 179 -280 179 -81 0 -141 -38 -274 -174 -153 -156 -184 -179 -240 -180
-59 0 -92 24 -243 178 -144 146 -193 176 -281 172 -31 -1 -75 -10 -97 -21 -22
-10 -96 -74 -164 -142 -167 -167 -193 -186 -245 -186 -22 0 -55 7 -72 16 -17
9 -94 78 -170 155 -148 147 -186 173 -271 180 -87 7 -143 -27 -297 -183 -143
-144 -164 -161 -216 -169 -56 -8 -97 19 -241 164 -152 152 -210 191 -288 189
-26 -1 -55 -4 -66 -6z"/>
<path d="M1541 2125 c-39 -18 -89 -61 -185 -158 -72 -73 -146 -142 -163 -152
-34 -20 -34 -22 -12 -82 5 -13 12 -23 17 -23 23 0 106 66 182 145 129 134 142
146 181 172 48 32 97 32 150 0 24 -14 98 -81 165 -150 175 -179 252 -211 376
-155 45 21 87 56 190 162 146 148 194 179 254 166 46 -11 77 -36 224 -182 140
-139 189 -170 271 -170 82 1 131 32 266 167 142 143 180 174 227 185 60 13
108 -18 252 -166 104 -106 144 -140 190 -161 127 -58 198 -28 386 162 94 96
144 140 178 154 79 34 102 22 270 -146 163 -162 214 -195 301 -195 28 1 53 3
56 5 2 3 -1 23 -7 46 -10 36 -14 41 -41 41 -58 0 -100 30 -232 163 -148 150
-200 186 -281 194 -90 9 -142 -23 -311 -192 -139 -141 -174 -165 -236 -165
-31 0 -107 61 -223 179 -135 137 -183 170 -262 178 -90 9 -152 -29 -306 -186
-120 -123 -184 -171 -225 -171 -49 1 -109 45 -236 173 -154 157 -193 181 -287
181 -90 -1 -129 -26 -297 -193 -213 -213 -225 -213 -434 -1 -157 158 -203 190
-286 196 -48 4 -68 0 -112 -21z"/>
<path d="M6154 3419 c-12 -4 -24 -18 -27 -31 -8 -36 -3 -831 5 -844 14 -22 49
-23 69 -3 18 18 19 38 19 430 0 246 -4 418 -10 428 -12 24 -30 30 -56 20z"/>
</g>
</svg>
